#!OML:ASF G:\JayActor3\Patient Classification 1\Patient 1\Session 2\male.ASF
:FULLY-SPECIFIED
:DEGREES
4367
root -31.2276 16.7236 -4.81695 4748.1 87.3705 -1735.08
lowerback 0.514386 -1.8622 -4.17631
upperback 8.26187 -1.94135 -1.66695
thorax 8.48674 -1.07263 0.454529
lowerneck -9.92447 1.09983 1.6899
upperneck 17.2514 1.46297 -0.437486
head 6.91875 0.837704 -0.284247
rclavicle 2.16675e-014 1.82882e-014
rhumerus -29.2445 -0.375482 -89.1152
rradius 26.1157
rwrist -3.53294
rhand -19.995 5.81461
rfingers 7.12502
rthumb 6.34462 -24.0704
lclavicle 2.16675e-014 1.82882e-014
lhumerus -11.1442 10.6395 89.6845
lradius 12.9392
lwrist -8.80031
lhand -17.8651 16.0884
lfingers 7.12502
lthumb 8.40054 45.9014
rfemur -32.5449 2.72467 20.3052
rtibia 30.1026
rfoot -15.2692 -13.129
rtoes 11.2726
lfemur 18.967 7.7927 -24.8793
ltibia -9.54166e-015
lfoot -4.46869 -0.804742
ltoes -4.17815
4368
root -31.1202 16.7282 -4.8053 4750.3 87.4255 -1732.91
lowerback 0.522621 -1.81021 -4.02038
upperback 8.24098 -1.8867 -1.59406
thorax 8.45117 -1.03808 0.449634
lowerneck -9.90832 1.05139 1.6697
upperneck 17.3074 1.38961 -0.36264
head 6.93248 0.808888 -0.263119
rclavicle 2.0276e-014 -3.97569e-016
rhumerus -29.0424 -0.413711 -88.9856
rradius 25.8567
rwrist -3.33503
rhand -19.9744 5.78718
rfingers 7.12502
rthumb 6.36457 -24.0972
lclavicle 2.0276e-014 -3.97569e-016
lhumerus -11.7075 10.6645 89.5047
lradius 13.1997
lwrist -8.16959
lhand -17.9442 16.2259
lfingers 7.12502
lthumb 8.32419 46.0419
rfemur -32.4711 2.56159 20.3724
rtibia 30.5359
rfoot -14.7715 -13.2514
rtoes 12.1818
lfemur 19.31 7.89436 -24.6597
ltibia 9.54166e-015
lfoot -3.91387 -1.0442
ltoes -4.74172
4369
root -31.0118 16.7335 -4.79207 4752.03 87.4761 -1731.23
lowerback 0.487391 -1.75318 -3.88028
upperback 8.20607 -1.8246 -1.51371
thorax 8.42665 -1.00186 0.460699
lowerneck -9.87397 1.00414 1.66429
upperneck 17.3701 1.31623 -0.287891
head 6.94537 0.781304 -0.244531
rclavicle -3.97569e-016 -3.97569e-016
rhumerus -28.8233 -0.47236 -88.8423
rradius 25.5774
rwrist -3.09526
rhand -19.9608 5.77591
rfingers 7.12502
rthumb 6.37768 -24.1081
lclavicle -3.97569e-016 -3.97569e-016
lhumerus -12.3109 10.5695 89.3281
lradius 13.5305
lwrist -7.38682
lhand -18.0424 16.3143
lfingers 7.12502
lthumb 8.22945 46.134
rfemur -32.4065 2.40514 20.4666
rtibia 30.9607
rfoot -14.3348 -13.2429
rtoes 13.1351
lfemur 19.6155 8.01421 -24.4241
ltibia 4.77083e-014
lfoot -3.3005 -1.26418
ltoes -5.19277
4370
root -30.902 16.74 -4.77691 4753.71 87.5195 -1729.63
lowerback 0.406088 -1.69626 -3.77058
upperback 8.1633 -1.76063 -1.42776
thorax 8.42225 -0.967624 0.493352
lowerneck -9.82934 0.958409 1.66711
upperneck 17.4417 1.24274 -0.205419
head 6.9594 0.755143 -0.224818
rclavicle -4.49253e-014 -2.82274e-014
rhumerus -28.5861 -0.556774 -88.6853
rradius 25.2894
rwrist -2.81639
rhand -19.9554 5.7782
rfingers 7.12502
rthumb 6.38291 -24.1056
lclavicle -4.49253e-014 -2.82274e-014
lhumerus -12.9322 10.4323 89.1492
lradius 13.898
lwrist -6.55288
lhand -18.1444 16.3516
lfingers 7.12502
lthumb 8.13093 46.1752
rfemur -32.342 2.27942 20.5662
rtibia 31.3723
rfoot -13.9889 -13.1631
rtoes 14.1055
lfemur 19.889 8.13622 -24.1833
ltibia 1.59028e-014
lfoot -2.62083 -1.45835
ltoes -5.6415
4371
root -30.7907 16.7481 -4.75992 4755.61 87.5447 -1727.83
lowerback 0.290547 -1.64029 -3.70261
upperback 8.11228 -1.69548 -1.34185
thorax 8.43084 -0.936068 0.548452
lowerneck -9.77554 0.912084 1.68057
upperneck 17.5289 1.16571 -0.113344
head 6.97691 0.729205 -0.204042
rclavicle -1.13307e-014 0
rhumerus -28.3392 -0.680316 -88.5134
rradius 25.0021
rwrist -2.51105
rhand -19.9513 5.80589
rfingers 7.12502
rthumb 6.38688 -24.0778
lclavicle -1.13307e-014 0
lhumerus -13.5846 10.226 88.9713
lradius 14.32
lwrist -5.64724
lhand -18.2493 16.3264
lfingers 7.12502
lthumb 8.02969 46.1539
rfemur -32.267 2.1949 20.6485
rtibia 31.7641
rfoot -13.7429 -13.0627
rtoes 15.0299
lfemur 20.1385 8.25273 -23.953
ltibia -9.54166e-015
lfoot -1.86919 -1.62268
ltoes -6.04409
4372
root -30.6781 16.7578 -4.74154 4757.87 87.5506 -1725.67
lowerback 0.158858 -1.58697 -3.67157
upperback 8.05539 -1.63183 -1.25899
thorax 8.44405 -0.907834 0.620564
lowerneck -9.71711 0.864184 1.70468
upperneck 17.6378 1.0838 -0.0116341
head 7.00066 0.70297 -0.182256
rclavicle -1.5207e-014 2.78299e-015
rhumerus -28.0926 -0.849466 -88.328
rradius 24.7336
rwrist -2.18904
rhand -19.9412 5.83226
rfingers 7.12502
rthumb 6.39659 -24.0512
lclavicle -1.5207e-014 2.78299e-015
lhumerus -14.2621 9.96935 88.7928
lradius 14.7866
lwrist -4.6858
lhand -18.3549 16.3058
lfingers 7.12502
lthumb 7.92784 46.1371
rfemur -32.1618 2.15702 20.7049
rtibia 32.1279
rfoot -13.6126 -12.9797
rtoes 15.873
lfemur 20.3779 8.35758 -23.7371
ltibia -2.8625e-014
lfoot -1.04377 -1.74927
ltoes -6.41719
4373
root -30.5642 16.7691 -4.72225 4760.7 87.541 -1722.92
lowerback 0.0297827 -1.54098 -3.66593
upperback 7.9963 -1.57675 -1.1798
thorax 8.45458 -0.885341 0.702567
lowerneck -9.66695 0.814629 1.72887
upperneck 17.7755 0.996952 0.107442
head 7.03519 0.676469 -0.15512
rclavicle -4.07509e-015 -2.38542e-015
rhumerus -27.8512 -1.05733 -88.1334
rradius 24.4945
rwrist -1.87837
rhand -19.9336 5.85889
rfingers 7.12502
rthumb 6.40389 -24.0243
lclavicle -4.07509e-015 -2.38542e-015
lhumerus -14.9542 9.71333 88.6079
lradius 15.2721
lwrist -3.72001
lhand -18.4613 16.2889
lfingers 7.12502
lthumb 7.82514 46.1241
rfemur -32.0028 2.16369 20.7333
rtibia 32.4549
rfoot -13.6052 -12.939
rtoes 16.597
lfemur 19.6308 8.46521 -23.5151
ltibia 1.81951
lfoot -0.903616 -2.15099
ltoes -6.70397
4374
root -30.4492 16.7818 -4.70264 4764.06 87.5186 -1719.62
lowerback -0.0863069 -1.50196 -3.67449
upperback 7.93732 -1.53056 -1.10234
thorax 8.45844 -0.867954 0.790478
lowerneck -9.62039 0.761207 1.75019
upperneck 17.9358 0.902432 0.244353
head 7.07768 0.648275 -0.122267
rclavicle 1.09332e-015 -1.19271e-014
rhumerus -27.6189 -1.30226 -87.9271
rradius 24.295
rwrist -1.57776
rhand -19.9383 5.9165
rfingers 7.12502
rthumb 6.39935 -23.9668
lclavicle 1.09332e-015 -1.19271e-014
lhumerus -15.6542 9.45805 88.4221
lradius 15.7882
lwrist -2.72581
lhand -18.5404 16.317
lfingers 7.12502
lthumb 7.74878 46.155
rfemur -31.7767 2.20047 20.7413
rtibia 32.7355
rfoot -13.7086 -12.9414
rtoes 17.2261
lfemur 18.0984 8.57769 -23.2926
ltibia 5.10545
lfoot -1.29326 -2.77928
ltoes -6.90197
4375
root -30.3336 16.7956 -4.68303 4768.02 87.4977 -1715.7
lowerback -0.178988 -1.47196 -3.67434
upperback 7.8779 -1.49795 -1.02216
thorax 8.44832 -0.856461 0.876055
lowerneck -9.57931 0.703555 1.76589
upperneck 18.1147 0.80032 0.396788
head 7.12723 0.618036 -0.0839677
rclavicle 2.5842e-015 1.27222e-014
rhumerus -27.3991 -1.5747 -87.7122
rradius 24.1325
rwrist -1.30476
rhand -19.965 6.03357
rfingers 7.12502
rthumb 6.37361 -23.8505
lclavicle 2.5842e-015 1.27222e-014
lhumerus -16.3531 9.22668 88.2325
lradius 16.3114
lwrist -1.74785
lhand -18.5935 16.3924
lfingers 7.12502
lthumb 7.69754 46.2323
rfemur -31.4768 2.24047 20.7521
rtibia 32.9621
rfoot -13.9019 -12.9747
rtoes 17.7664
lfemur 17.2075 8.64992 -23.0728
ltibia 7.23675
lfoot -1.11275 -3.16229
ltoes -6.86333
4376
root -30.2178 16.8102 -4.66361 4772.6 87.4829 -1711.13
lowerback -0.248022 -1.45259 -3.65253
upperback 7.81805 -1.48192 -0.936987
thorax 8.42383 -0.851537 0.954178
lowerneck -9.54317 0.642273 1.7702
upperneck 18.3047 0.69134 0.568817
head 7.18133 0.585992 -0.0378922
rclavicle 1.8487e-014 1.09332e-014
rhumerus -27.2 -1.8371 -87.5034
rradius 24.0285
rwrist -1.07331
rhand -20.0265 6.14087
rfingers 7.12502
rthumb 6.31425 -23.745
lclavicle 1.8487e-014 1.09332e-014
lhumerus -17.0388 9.03056 88.039
lradius 16.8195
lwrist -0.809402
lhand -18.6375 16.4396
lfingers 7.12502
lthumb 7.65507 46.281
rfemur -31.1072 2.25686 20.7827
rtibia 33.1303
rfoot -14.1682 -13.0204
rtoes 18.2101
lfemur 16.452 8.69243 -22.8369
ltibia 9.13678
lfoot -0.754778 -3.45093
ltoes -6.73568
